<?xml version="1.0"?>
<svg id="Ebene_1" xmlns="http://www.w3.org/2000/svg" version="1.1" viewBox="0 0 393.7 393.7">
  
  <defs>
    
  </defs>
  <g id="Ebene_1-2">
    <path class="st0" d="M224.3,181.4l-99.8-36.3-27.9,44.8h145.5l-64.3-102.9c.3.2,114.5,102.9,114.5,102.9L194.5,33.3l-50.5,80.8,80.3,67.4h0Z"></path>
  </g>
  <g>
    <g>
      <path class="st0" d="M23.7,275.6c-3.9-2.6-6.3-6.3-7.1-11.1l9.9-4.6c0,3.2,1,5.8,3,7.6,2,1.9,4.8,2.8,8.2,2.8s4.9-.6,6.6-1.7c1.7-1.1,2.6-2.6,2.6-4.4s-.5-2.5-1.4-3.4c-.9-.9-2.1-1.5-3.5-1.9s-3.4-.9-6.1-1.4c-3.7-.7-6.8-1.5-9.3-2.4s-4.5-2.3-6.3-4.4c-1.7-2.1-2.6-4.9-2.6-8.6s.9-5.8,2.6-8.2c1.7-2.4,4-4.3,7-5.6,2.9-1.3,6.2-2,9.8-2s6.9.6,9.7,1.9c2.8,1.3,5.1,3,6.9,5.2,1.7,2.2,2.8,4.6,3.3,7.4l-9.5,4.2c0-2.8-1-5.1-2.9-6.8s-4.4-2.6-7.6-2.6-4.6.5-6.2,1.6-2.4,2.5-2.4,4.3.5,2.6,1.4,3.4c1,.9,2.2,1.5,3.7,2,1.5.5,3.5.9,6,1.4,3.8.7,6.9,1.6,9.3,2.5s4.4,2.4,6.2,4.5c1.7,2.1,2.6,5,2.6,8.7s-.9,6-2.6,8.4c-1.8,2.4-4.1,4.2-7.2,5.4-3,1.2-6.4,1.8-10.1,1.8-5.5,0-10.2-1.3-14.1-3.9h0Z"></path>
      <path class="st0" d="M72.3,277c-2.9-1.6-5.2-3.9-6.9-6.8-1.6-2.9-2.5-6.2-2.5-9.9s.8-7,2.5-9.9,4-5.2,6.9-6.8,6.3-2.5,10.1-2.5,7.5,1,10.7,3c3.2,2,5.4,4.5,6.6,7.5l-9,5.1c-.3-1.9-1.2-3.4-2.8-4.6s-3.4-1.8-5.5-1.8-4.8.9-6.5,2.6-2.5,4.2-2.5,7.4.8,5.6,2.5,7.3c1.7,1.7,3.8,2.6,6.5,2.6s3.7-.6,5.2-1.8,2.5-2.6,3-4.4l8.8,5c-1.2,3-3.4,5.5-6.4,7.5-3,2-6.6,2.9-10.6,2.9s-7.3-.8-10.2-2.4h0Z"></path>
      <path class="st0" d="M106.8,227.7h10.2v25.1l2.1-8.2c2.1-2.3,5.1-3.4,8.8-3.4s7.5,1.4,9.7,4.1c2.2,2.7,3.4,6.7,3.4,11.8v21.3h-10.2v-19.1c0-3.1-.5-5.4-1.5-6.7-1-1.4-2.6-2-4.9-2s-4.2.8-5.4,2.5c-1.3,1.6-1.9,4-1.9,7v18.4h-10.2v-50.8h0Z"></path>
      <path class="st0" d="M149.5,227.7h10.2v9.7h-10.2v-9.7ZM149.5,242.5h10.2v35.9h-10.2v-35.9Z"></path>
      <path class="st0" d="M169,227.7h10.2v50.8h-10.2v-50.8Z"></path>
      <path class="st0" d="M195.6,276.3c-2.2-2-3.3-5.2-3.3-9.5v-15.7h-6.6v-8.5h6.6v-7.4l10.2-6.4v13.8h9.9v8.5h-9.9v14.4c0,1.9.3,3.1,1,3.8.7.7,1.8,1,3.5,1s1.6,0,2.6-.2,1.9-.3,2.6-.4v8.8c-.6.2-1.6.4-3.1.6-1.5.2-2.7.3-3.5.3-4.4,0-7.7-1-9.9-3h0Z"></path>
      <path class="st0" d="M220.4,227.7h10.2v25.1l2.1-8.2c2.1-2.3,5.1-3.4,8.8-3.4s7.5,1.4,9.7,4.1c2.2,2.7,3.4,6.7,3.4,11.8v21.3h-10.2v-19.1c0-3.1-.5-5.4-1.5-6.7-1-1.4-2.6-2-4.9-2s-4.2.8-5.4,2.5c-1.3,1.6-1.9,4-1.9,7v18.4h-10.2v-50.8h0Z"></path>
      <path class="st0" d="M270.8,277c-3-1.6-5.4-3.9-7.1-6.8s-2.6-6.2-2.6-9.8.9-7,2.6-9.9,4.1-5.2,7.1-6.8c3-1.6,6.4-2.5,10.2-2.5s7.2.8,10.2,2.5,5.4,3.9,7.1,6.8,2.6,6.2,2.6,9.9-.9,6.9-2.6,9.8-4.1,5.2-7.1,6.8c-3,1.6-6.4,2.5-10.2,2.5s-7.2-.8-10.2-2.5ZM287.6,267.5c1.8-1.8,2.6-4.2,2.6-7.2s-.9-5.4-2.6-7.2-4-2.7-6.6-2.7-4.9.9-6.6,2.7-2.6,4.2-2.6,7.2.9,5.4,2.6,7.2c1.8,1.8,4,2.7,6.6,2.7s4.9-.9,6.6-2.7Z"></path>
      <path class="st0" d="M307.8,242.5h10.2v11.6l2.1-9.6c.7-.8,1.6-1.5,2.8-2.1,1.2-.6,2.4-.9,3.9-.9s2.8.2,4,.7v9.9c-1-.3-1.8-.5-2.6-.7-.8-.1-1.6-.2-2.6-.2-2.3,0-4.2.9-5.5,2.7s-2,4.3-2,7.3v17.3h-10.2v-35.9h0Z"></path>
      <path class="st0" d="M336.9,242.5h10.2v10.2l2.1-8.2c2.1-2.3,5.1-3.4,8.8-3.4s7.5,1.4,9.7,4.1c2.2,2.7,3.4,6.7,3.4,11.8v21.3h-10.2v-19.1c0-3.1-.5-5.4-1.5-6.7-1-1.4-2.6-2-4.9-2s-4.2.8-5.4,2.5c-1.3,1.6-1.9,4-1.9,7v18.4h-10.2v-35.9h0Z"></path>
      <path class="st0" d="M34.9,292.6h22.3c3.4,0,6.4.6,9,1.9,2.7,1.3,4.7,3.2,6.3,5.6,1.5,2.4,2.3,5.3,2.3,8.6s-.8,6.1-2.3,8.6-3.6,4.3-6.3,5.6-5.7,1.9-9,1.9h-11.6v18.6h-10.6v-50.8h0ZM57,315.3c2.2,0,3.9-.6,5.1-1.8s1.9-2.8,1.9-4.7-.6-3.5-1.9-4.7c-1.3-1.2-3-1.8-5.1-1.8h-11.5v13.1h11.5Z"></path>
      <path class="st0" d="M81.4,292.6h10.2v9.7h-10.2v-9.7ZM81.4,307.5h10.2v35.9h-10.2v-35.9Z"></path>
      <path class="st0" d="M98.6,334.4l18.2-18h-17.8v-8.8h31.1v9l-18.3,18h18.8v8.8h-32v-9h0Z"></path>
      <path class="st0" d="M206.6,292.6h10.2v50.8h-10.2v-50.8Z"></path>
      <path class="st0" d="M233.1,342c-3-1.6-5.4-3.9-7.1-6.8s-2.6-6.2-2.6-9.8.9-7,2.6-9.9,4.1-5.2,7.1-6.8c3-1.6,6.4-2.5,10.2-2.5s7.2.8,10.2,2.5,5.4,3.9,7.1,6.8,2.6,6.2,2.6,9.9-.9,6.9-2.6,9.8-4.1,5.2-7.1,6.8-6.4,2.5-10.2,2.5-7.2-.8-10.2-2.5ZM249.9,332.5c1.8-1.8,2.6-4.2,2.6-7.2s-.9-5.4-2.6-7.2-4-2.7-6.6-2.7-4.9.9-6.6,2.7-2.6,4.2-2.6,7.2.9,5.4,2.6,7.2c1.8,1.8,4,2.7,6.6,2.7s4.9-.9,6.6-2.7Z"></path>
      <path class="st0" d="M269.5,307.5h10.2v11.6l2.1-9.6c.7-.8,1.6-1.5,2.8-2.1,1.2-.6,2.4-.9,3.9-.9s2.8.2,4,.7v9.9c-1-.3-1.8-.5-2.6-.7-.8-.1-1.6-.2-2.6-.2-2.3,0-4.2.9-5.5,2.7s-2,4.3-2,7.3v17.3h-10.2v-35.9h0Z"></path>
      <path class="st0" d="M297.9,292.6h10.2v9.7h-10.2v-9.7ZM297.9,307.5h10.2v35.9h-10.2v-35.9Z"></path>
      <path class="st0" d="M323.2,342c-2.8-1.6-4.9-3.9-6.5-6.8s-2.3-6.1-2.3-9.7.8-7,2.3-9.9,3.7-5.2,6.5-6.9c2.8-1.7,5.9-2.5,9.3-2.5s8.3,1.5,11.2,4.6v-3.2h10.2v19.6l2.5,16.3h-10.7l-.4-4.8h0c-2.4,3.4-7.8,5.8-12.7,5.8s-6.6-.8-9.3-2.5h0ZM339.2,334.1c1.4-.8,2.6-1.9,3.5-3.4s1.3-3.2,1.3-5.2-.4-3.9-1.3-5.4-2-2.7-3.5-3.5-3-1.2-4.7-1.2-3.4.4-4.8,1.2-2.6,2-3.5,3.5-1.3,3.3-1.3,5.4c0,2.9.9,5.3,2.8,7.1s4.1,2.7,6.8,2.7,3.2-.4,4.7-1.2h0Z"></path>
    </g>
    <path class="st0" d="M159.6,341.1c-3.8-2.3-6.7-5.4-8.8-9.4-2.1-4-3.2-8.6-3.2-13.7s1.2-9.9,3.5-13.9c2.3-4,5.5-7.2,9.5-9.4,4.1-2.2,8.6-3.4,13.6-3.4s9.7,1.2,13.9,3.5c4.2,2.4,7.3,5.7,9.3,10l-8.7,5.7c-1-2.9-2.8-5.3-5.4-7.1s-5.7-2.7-9.3-2.7-5.9.7-8.3,2.2c-2.4,1.4-4.2,3.5-5.5,6s-1.9,5.5-1.9,8.7.6,6.5,1.9,9.1c1.3,2.6,3,4.6,5.4,6,2.3,1.4,5,2.1,8,2.1s6.6-.9,8.9-2.7,3.9-4.3,4.7-7.5h-15.8l5.8-9.4h20.6v28.1h-10.4v-5.5c-3.6,4.4-8.5,6.6-14.8,6.6s-9.1-1.1-12.8-3.4h0Z"></path>
  </g>
</svg>